<svg width="38" height="56" viewBox="0 0 38 56" fill="none" xmlns="http://www.w3.org/2000/svg">
  <path d="M26.0573 9.28896C26.0573 5.47802 22.8977 2.38864 19.0002 2.38864C15.1026 2.38864 11.943 5.47802 11.943 9.28896V25.7436C11.943 29.5545 15.1026 32.6439 19.0002 32.6439C22.8977 32.6439 26.0573 29.5545 26.0573 25.7436V9.28896Z" stroke="black" stroke-width="3"/>
  <path d="M3.8 25.4781V28.6628C3.8 32.6046 5.40143 36.3848 8.25198 39.172C11.1025 41.9592 14.9687 43.5251 19 43.5251M19 43.5251C23.0313 43.5251 26.8975 41.9592 29.748 39.172C32.5986 36.3848 34.2 32.6046 34.2 28.6628V25.4781M19 43.5251V52.5486" stroke="black" stroke-width="3" stroke-linecap="round"/>
</svg>
